<svg width="50" height="50" viewBox="0 0 50 50" fill="none" xmlns="http://www.w3.org/2000/svg">
<mask id="mask0_26_248" style="mask-type:alpha" maskUnits="userSpaceOnUse" x="0" y="0" width="50" height="50">
<circle cx="25" cy="25" r="25" fill="#D9D9D9"/>
</mask>
<g mask="url(#mask0_26_248)">
<path d="M59.0483 3.39619C66.0612 2.87661 72.5535 8.41263 69.0741 14.5237V14.5237C66.9107 18.3232 63.5013 21.6552 59.16 24.2125C54.8187 26.7698 49.685 28.4703 44.2322 29.1572C38.7793 29.8441 33.1825 29.4953 27.9576 28.1431C22.7327 26.7908 18.0477 24.4785 14.3343 21.4192C10.6209 18.36 7.99847 14.6522 6.70874 10.6374C5.419 6.62272 5.50341 2.43022 6.95419 -1.55375V-1.55375C9.69298 -9.07471 19.4695 -8.95516 25.9694 -4.28426L31.326 -0.434962C36.122 3.01148 41.9775 4.66093 47.8672 4.22457L59.0483 3.39619Z" fill="#4E46E5"/>
<path d="M54.7482 12.3962C61.7611 11.8766 68.2534 17.4126 64.774 23.5237V23.5237C62.6107 27.3232 59.2013 30.6552 54.8599 33.2125C50.5186 35.7698 45.385 37.4703 39.9321 38.1572C34.4792 38.8441 28.8825 38.4953 23.6576 37.1431C18.4327 35.7908 13.7477 33.4785 10.0343 30.4192C6.32082 27.36 3.69843 23.6522 2.40869 19.6374C1.11895 15.6227 1.20336 11.4302 2.65414 7.44625V7.44625C5.39293 -0.0747119 15.1695 0.0448433 21.6694 4.71574L27.0259 8.56504C31.8219 12.0115 37.6774 13.6609 43.5672 13.2246L54.7482 12.3962Z" fill="#6365F1"/>
<path d="M48.8804 22.4394C55.8834 23.0923 60.7576 29.9378 55.8697 34.995V34.995C52.6337 38.3429 48.3212 41.029 43.3295 42.8057C38.3378 44.5823 32.8274 45.3925 27.3061 45.1615C21.7849 44.9304 16.4303 43.6657 11.7357 41.4837C7.04117 39.3017 3.15769 36.2727 0.443119 32.6758C-2.27146 29.0789 -3.72981 25.0297 -3.79757 20.9014C-3.86534 16.7732 -2.54033 12.6986 0.0553648 9.05305V9.05305C4.97426 2.14475 14.9437 4.459 20.5467 10.8251L23.2991 13.9524C27.0569 18.2219 32.3042 20.8941 37.9674 21.422L48.8804 22.4394Z" fill="#A5B3FC"/>
<path d="M42.3996 31.5186C49.3575 32.9964 53.09 40.5703 47.4205 44.866V44.866C43.5392 47.8068 38.7289 49.971 33.4329 51.1592C28.1369 52.3474 22.5256 52.5214 17.1159 51.6651C11.7062 50.8088 6.67215 48.9497 2.47764 46.2593C-1.71687 43.5688 -4.93694 40.1335 -6.88586 36.2698C-8.83478 32.4061 -9.44988 28.2384 -8.67446 24.1506C-7.89905 20.0628 -5.75806 16.1864 -2.44879 12.8787V12.8787C3.73839 6.6944 13.5066 10.5277 18.0715 17.9901L19.3995 20.161C22.3045 24.91 27.0346 28.2552 32.4801 29.4118L42.3996 31.5186Z" fill="#E0E7FF"/>
<path d="M36.9796 40.2879C43.8507 42.5285 46.5631 50.6488 40.3038 54.2617V54.2617C35.9289 56.787 30.7731 58.4495 25.3114 59.0963C19.8497 59.743 14.2579 59.353 9.05109 57.9624C3.8443 56.5717 -0.809948 54.225 -4.48279 51.1386C-8.15563 48.0522 -10.7289 44.3252 -11.9656 40.3012C-13.2022 36.2772 -13.0624 32.0855 -11.5591 28.1124C-10.0558 24.1393 -7.23727 20.5126 -3.36325 17.5664V17.5664C3.72842 12.1732 13.0643 17.3138 16.4103 25.5711L16.8983 26.7754C18.96 31.8635 23.1622 35.7822 28.3816 37.4842L36.9796 40.2879Z" fill="#A5B3FC"/>
<path d="M31.1601 46.4317C37.6107 49.4966 39.0848 57.844 32.5176 60.6503V60.6503C27.8793 62.6322 22.665 63.7421 17.3242 63.8843C11.9833 64.0265 6.67632 63.1967 1.86077 61.4664C-2.95478 59.7361 -7.13434 57.1573 -10.3175 53.9524C-13.5007 50.7474 -15.5919 47.0125 -16.4109 43.0697C-17.2298 39.1269 -16.7519 35.0946 -15.0184 31.3204C-13.2849 27.5462 -10.3478 24.1435 -6.46032 21.4056V21.4056C0.609676 16.4263 9.5308 21.5857 12.5576 29.6861L13.597 32.4676C15.2344 36.8496 18.5126 40.4225 22.7379 42.4301L31.1601 46.4317Z" fill="#6365F1"/>
<path d="M22.709 52.088C29.0581 55.8744 29.6995 64.6424 22.6606 66.901V66.901C17.6822 68.4984 12.253 69.1545 6.85391 68.8112C1.45479 68.4679 -3.7476 67.1358 -8.29244 64.9329C-12.8373 62.73 -16.5843 59.7243 -19.2016 56.182C-21.8188 52.6397 -23.2256 48.6702 -23.2972 44.6251C-23.3688 40.5799 -22.103 36.584 -19.6121 32.9913C-17.1211 29.3986 -13.4818 26.32 -9.01656 24.0282V24.0282C-1.17281 20.0024 7.00302 26.6326 8.30934 35.3518L8.48405 36.518C9.22206 41.4439 12.1303 45.7792 16.4082 48.3304L22.709 52.088Z" fill="#0B34BF"/>
</g>
</svg>
