<svg width="500" height="500" viewBox="0 0 500 500" fill="none" xmlns="http://www.w3.org/2000/svg">
<mask id="mask0_26_233" style="mask-type:alpha" maskUnits="userSpaceOnUse" x="0" y="0" width="500" height="500">
<circle cx="250" cy="250" r="250" fill="#D9D9D9"/>
</mask>
<g mask="url(#mask0_26_233)">
<path d="M590.482 33.9614C660.612 28.7656 725.534 84.1258 690.74 145.236V145.236C669.107 183.232 635.013 216.551 591.599 242.124C548.186 267.698 496.85 284.702 442.321 291.571C387.792 298.44 331.825 294.953 279.576 281.43C227.327 267.907 180.477 244.784 143.343 214.192C106.208 183.599 79.9843 146.521 67.0869 106.374C54.1895 66.2267 55.0336 24.3017 69.5414 -15.538V-15.538C96.9293 -90.7476 194.695 -89.552 259.694 -42.8431L313.259 -4.35012C361.219 30.1143 419.774 46.6089 478.672 42.2452L590.482 33.9614Z" fill="#4E46E5"/>
<path d="M547.482 123.961C617.612 118.766 682.534 174.126 647.74 235.236V235.236C626.107 273.232 592.013 306.551 548.599 332.124C505.186 357.698 453.85 374.702 399.321 381.571C344.792 388.44 288.825 384.953 236.576 371.43C184.327 357.907 137.477 334.784 100.343 304.192C63.2082 273.599 36.9843 236.521 24.0869 196.374C11.1895 156.227 12.0336 114.302 26.5414 74.462V74.462C53.9293 -0.747622 151.695 0.447956 216.694 47.1569L270.259 85.6499C318.219 120.114 376.774 136.609 435.672 132.245L547.482 123.961Z" fill="#6365F1"/>
<path d="M488.805 224.394C558.834 230.923 607.577 299.378 558.697 349.95V349.95C526.338 383.429 483.213 410.29 433.296 428.057C383.379 445.823 328.275 453.925 273.062 451.615C217.849 449.304 164.303 436.657 117.358 414.837C70.4121 393.017 31.5774 362.727 4.43167 326.758C-22.7141 290.789 -37.2976 250.297 -37.9753 209.014C-38.6529 167.732 -25.4028 126.986 0.554136 90.5306V90.5306C49.743 21.4475 149.438 44.59 205.467 108.251L232.992 139.524C270.57 182.219 323.043 208.941 379.675 214.22L488.805 224.394Z" fill="#A5B3FC"/>
<path d="M423.996 315.186C493.575 329.964 530.9 405.703 474.205 448.66V448.66C435.392 478.068 387.289 499.71 334.329 511.592C281.369 523.474 225.256 525.214 171.159 516.651C117.062 508.088 66.7215 489.497 24.7764 462.593C-17.1687 435.688 -49.3694 401.335 -68.8586 362.698C-88.3478 324.061 -94.4988 282.384 -86.7446 241.506C-78.9905 200.628 -57.5806 161.864 -24.4879 128.787V128.787C37.3839 66.944 135.066 105.277 180.715 179.901L193.995 201.61C223.045 249.1 270.346 282.552 324.801 294.118L423.996 315.186Z" fill="#E0E7FF"/>
<path d="M369.797 402.88C438.508 425.285 465.632 506.488 403.039 542.618V542.618C359.29 567.87 307.732 584.496 253.115 590.963C198.498 597.43 142.579 593.531 90.5114 579.624C38.4434 565.718 -8.09899 542.251 -44.8274 511.386C-81.5558 480.522 -107.289 443.253 -119.655 403.012C-132.022 362.772 -130.624 320.855 -115.591 281.124C-100.557 241.393 -72.3722 205.126 -33.632 175.665V175.665C37.2847 121.733 130.643 173.139 164.103 255.711L168.983 267.755C189.601 318.635 231.623 357.823 283.817 374.843L369.797 402.88Z" fill="#A5B3FC"/>
<path d="M311.601 464.318C376.107 494.967 390.849 578.441 325.176 606.503V606.503C278.794 626.323 226.65 637.422 173.242 638.844C119.834 640.266 66.7636 631.967 18.6082 614.664C-29.5473 597.362 -71.343 571.574 -103.175 539.524C-135.006 507.475 -155.919 470.126 -164.108 430.698C-172.298 391.27 -167.519 350.946 -150.184 313.204C-132.849 275.463 -103.477 241.435 -64.6027 214.056V214.056C6.09725 164.263 95.3084 215.857 125.577 296.861L135.97 324.676C152.344 368.497 185.127 404.226 227.38 424.301L311.601 464.318Z" fill="#6365F1"/>
<path d="M227.09 520.88C290.581 558.745 296.996 646.425 226.606 669.011V669.011C176.823 684.984 122.531 691.546 68.5395 688.113C14.5484 684.68 -37.4755 671.359 -82.9239 649.33C-128.372 627.301 -165.842 597.244 -192.015 561.821C-218.188 526.398 -232.255 486.702 -232.971 446.251C-233.687 405.8 -221.03 365.841 -196.12 329.914C-171.211 293.987 -134.818 263.201 -90.1651 240.283V240.283C-11.7276 200.024 70.0306 266.327 83.0939 353.519L84.841 365.181C92.221 414.439 121.303 457.792 164.082 483.304L227.09 520.88Z" fill="#0B34BF"/>
</g>
</svg>
